<svg width="11" height="14" viewBox="0 0 11 14" fill="none" xmlns="http://www.w3.org/2000/svg">
<path d="M0.991535 0.766479C1.00887 0.767587 1.03244 0.773216 1.06185 0.795776L1.07259 0.804565L1.08431 0.812378L9.91829 6.84656L9.9222 6.84949C9.97934 6.88758 10.0003 6.93755 10.0003 6.98328C10.0003 7.029 9.97934 7.07897 9.9222 7.11707L9.91732 7.12097L1.08333 13.1874L1.07259 13.1952L1.06185 13.204C1.03242 13.2266 1.00888 13.2322 0.991535 13.2333C0.971797 13.2345 0.947514 13.23 0.922199 13.2167C0.870208 13.1891 0.833332 13.1355 0.833332 13.0663V0.933472C0.833332 0.864268 0.870208 0.810668 0.922199 0.783081C0.947496 0.769736 0.97181 0.765252 0.991535 0.766479Z" fill="#171719" stroke="#171719"/>
</svg>
