<svg width="14" height="14" viewBox="0 0 14 14" fill="none" xmlns="http://www.w3.org/2000/svg">
<path d="M6.60001 1.09998C9.63755 1.09998 12.1 3.56241 12.1 6.59998C12.1 7.85497 11.68 9.01061 10.9731 9.93591L10.7074 10.2836L13.2113 12.7875C13.3285 12.9046 13.3285 13.0951 13.2113 13.2123C13.0942 13.3291 12.9045 13.3292 12.7875 13.2123L10.5922 11.017L10.2836 10.7074L9.93594 10.973C9.01072 11.6799 7.85485 12.1 6.60001 12.1C3.56244 12.1 1.10001 9.63751 1.10001 6.59998C1.10001 3.56241 3.56244 1.09998 6.60001 1.09998ZM6.60001 1.69958C3.89381 1.69958 1.69962 3.89378 1.69962 6.59998C1.69962 9.3062 3.89381 11.5004 6.60001 11.5004C9.30623 11.5004 11.5004 9.3062 11.5004 6.59998C11.5004 3.89378 9.30623 1.69959 6.60001 1.69958Z" fill="#FCFCFC" stroke="#FCFCFC"/>
</svg>
